<?xml version="1.0" encoding="UTF-8" standalone="no"?>
<svg width="152px" height="145px" viewBox="0 0 152 145" version="1.1" xmlns="http://www.w3.org/2000/svg" xmlns:xlink="http://www.w3.org/1999/xlink">
    <!-- Generator: Sketch 39.1 (31720) - http://www.bohemiancoding.com/sketch -->
    <title>Slice 1</title>
    <desc>Created with Sketch.</desc>
    <defs></defs>
    <g id="Page-1" stroke="none" stroke-width="1" fill="none" fill-rule="evenodd">
        <g id="noun_11573_cc" fill="#000000">
            <g id="Group">
                <path d="M36.8701875,25.4614683 C36.8701875,14.4353343 28.6637828,5.49625898 18.5413805,5.49625898 C8.41897817,5.49625898 0.212573502,14.4353343 0.212573502,25.4614683 C0.212573502,36.4893401 8.41897817,45.4284154 18.5413805,45.4284154 C28.6637828,45.4284154 36.8701875,36.4893401 36.8701875,25.4614683 L36.8701875,25.4614683 Z M93.2589082,40.1925223 C103.382906,40.1925223 111.589311,31.253447 111.589311,20.227313 C111.589311,9.20117902 103.381311,0.262103655 93.2589082,0.262103655 C83.1365059,0.262103655 74.9316965,9.20117902 74.9316965,20.227313 C74.9316965,31.253447 83.1365059,40.1925223 93.2589082,40.1925223 L93.2589082,40.1925223 Z M61.3107239,102.449776 C61.3107239,102.449776 66.7412452,75.1720417 57.2362376,72.5427997 C48.463489,70.1151387 42.8622668,72.5427997 42.8622668,72.5427997 L42.8622668,66.6274396 L26.0091449,60.2185535 L53.1633467,66.6274396 C53.1633467,66.6274396 65.3820196,73.0363256 69.4565059,66.6274396 C73.5293968,60.2185535 69.4565059,61.6973935 64.4774645,60.2185535 C59.5000184,58.7397135 60.8560534,56.2738216 60.8560534,56.2738216 C60.8560534,56.2738216 54.9724569,59.7250276 53.6164219,57.7526616 C52.2571962,55.7802956 62.215279,51.8373015 62.215279,51.8373015 C62.215279,51.8373015 60.8560534,47.8925695 53.6164219,51.8373015 C53.6164219,51.8373015 46.1486575,44.4431013 31.4396662,44.4431013 C31.4396662,44.4431013 27.3667753,50.8519874 11.9797665,48.3878332 C11.9797665,48.3878332 19.2209933,66.1339136 18.7679181,79.4452117 C18.3164382,92.7565098 21.4831787,98.6718699 30.5367064,109.520752 C30.5367064,109.520752 30.9881863,117.900266 21.2582365,121.844998 C21.2582365,121.844998 12.4328417,125.294466 16.7322703,133.677456 C21.0316989,142.060446 21.9442306,144.522862 30.5383018,144.522862 C39.1355636,144.522862 44.3443333,133.677456 30.5383018,133.677456 C30.5383018,133.677456 45.9237152,120.859684 43.2068592,107.05486 C40.4915986,93.2535113 39.1339683,89.8023053 39.1339683,89.8023053 L50.9011613,84.3787333 L50.9011613,107.548386 C50.9011613,116.421426 52.7118668,123.815626 61.3091286,116.421426 C69.9063904,109.027226 75.7915822,105.084232 73.0763216,99.6589218 C70.361061,94.2353498 61.3107239,102.449776 61.3107239,102.449776 L61.3107239,102.449776 Z M50.448086,55.7820334 C50.448086,55.7820334 48.1859006,55.7820334 27.8182551,50.8519874 C27.8182551,50.8519874 43.6583391,49.3731473 50.448086,55.7820334 L50.448086,55.7820334 Z M115.319204,63.3395837 C115.319204,63.3395837 116.182281,56.643966 114.563015,44.4413635 C112.972466,32.4403421 103.097341,40.8250696 103.097341,40.8250696 C103.097341,40.8250696 96.912226,46.2469038 86.3527018,42.6323477 C86.3527018,42.6323477 84.3904394,51.3420378 61.610647,49.0412338 C61.610647,49.0412338 63.2682003,49.5347597 64.627426,51.8355637 C64.627426,51.8355637 55.4303181,55.9036771 55.4239368,56.6005218 C55.4095787,58.3435025 62.8167204,54.216305 62.8167204,54.216305 C62.8167204,54.216305 61.0076102,57.09231 62.9698726,58.0793619 C64.9305397,59.064676 71.4171729,59.064676 72.1717665,62.515882 C72.1717665,62.515882 72.1510271,59.5582019 73.7447671,59.8866399 C75.338507,60.215078 96.912226,61.7095579 105.059603,53.237942 C105.059603,53.237942 102.19119,58.8995881 95.2530773,60.215078 L94.9515589,64.816686 C94.9515589,64.816686 82.1298493,66.4588761 77.0008464,77.3042823 C77.0008464,77.3042823 69.9095811,79.9335243 73.0779169,85.1920084 C73.0779169,85.1920084 67.948914,88.3147764 71.1172499,90.1220544 C74.2855857,91.9275947 78.5100336,91.9275947 78.5100336,91.9275947 C78.5100336,91.9275947 83.7905933,98.8300067 85.5997035,99.9804087 C85.5997035,99.9804087 76.3978097,113.128357 84.2404779,118.386841 C92.0847414,123.643587 98.7229315,101.624337 95.7061525,97.8464304 C92.6893735,94.0667864 91.9363753,91.4375443 91.9363753,91.4375443 C89.2211146,87.5744875 85.5997035,82.7278543 85.5997035,82.7278543 C90.664893,83.9199627 91.9363753,91.4375443 91.9363753,91.4375443 C91.9363753,91.4375443 96.9154167,91.6026322 97.9715286,89.1384781 L95.556191,85.5152331 L97.8199718,85.5152331 C97.8199718,85.5152331 103.250493,102.778214 119.693614,94.4768995 C119.693614,94.4768995 118.186022,98.3399563 111.697793,98.8317445 C111.697793,98.8317445 115.319204,102.448038 110.338568,109.35045 C105.361122,116.252862 98.5713747,124.797465 100.683599,127.424969 C102.795822,130.055949 109.887088,142.378457 117.128315,140.736267 C124.369541,139.094077 113.961574,125.125903 113.961574,125.125903 C113.961574,125.125903 119.995132,117.89679 123.165063,110.499115 C126.331804,103.104914 124.824212,97.1912921 123.165063,92.2612461 C123.165063,92.2612461 126.483361,90.12553 129.501735,85.6890099 C132.518514,81.250752 137.797478,77.1426699 140.364373,77.3077578 C140.361182,77.3077578 135.455526,65.3293274 115.319204,63.3395837 L115.319204,63.3395837 Z M76.970535,53.7992408 C69.880865,54.3831307 65.2336534,54.6298936 65.2336534,54.6298936 C65.2336534,54.6298936 70.9672884,51.8373015 77.75544,51.8373015 C84.5435916,51.8373015 99.1776021,46.7421675 99.1776021,46.7421675 C95.8577094,49.5364975 84.0570143,53.2170888 76.970535,53.7992408 L76.970535,53.7992408 Z M90.1320511,77.9837494 C84.5483776,72.5601774 79.8628779,76.4875316 79.8628779,76.4875316 C88.9164056,67.4494035 96.0076709,82.7313298 96.0076709,82.7313298 C96.0076709,82.7313298 95.7125339,83.4055836 90.1320511,77.9837494 L90.1320511,77.9837494 Z M127.817061,19.1777015 C138.341488,30.6295885 151.600319,20.8390071 151.600319,20.8390071 C146.723379,23.8349181 135.460312,12.9113124 135.460312,12.9113124 L140.614841,14.1642426 C137.551797,8.0142839 126.429119,3.05469582 126.429119,3.05469582 L129.474614,1.48375412 C117.871741,-3.91722687 110.983083,8.86405214 110.983083,8.86405214 C112.672543,10.7842851 112.954918,13.2084706 112.954918,13.2084706 C112.954918,13.2084706 117.291039,7.72755228 127.817061,19.1777015 L127.817061,19.1777015 Z" id="Shape"></path>
            </g>
        </g>
    </g>
</svg>