<?xml version="1.0" encoding="UTF-8" standalone="no"?>
<svg width="92px" height="85px" viewBox="0 0 92 85" version="1.1" xmlns="http://www.w3.org/2000/svg" xmlns:xlink="http://www.w3.org/1999/xlink">
    <!-- Generator: Sketch 39.1 (31720) - http://www.bohemiancoding.com/sketch -->
    <title>Slice 1</title>
    <desc>Created with Sketch.</desc>
    <defs></defs>
    <g id="Page-1" stroke="none" stroke-width="1" fill="none" fill-rule="evenodd">
        <g id="noun_550480_cc" fill="#000000">
            <g id="Group">
                <path d="M83.3,11.1 C74.1,0.3 57.5,-4.5 45.9,8 C45.8,8.1 45.7,8.1 45.6,8 C32.8,-4.6 16.6,0.3 8.2,11.1 C-5.9,29.4 2,42.8 18.3,59.2 L45.7,84.4 L73.2,59.1 C89.6,42.8 98.4,28.6 83.3,11.1 L83.3,11.1 Z M79.9,32.7 C78.5,37.6 75.1,36.4 76.4,32.9 C78.1,28.4 76.9,24.6 73.2,20.3 C70.4,17 66.4,15 62.8,15 C60.1,15 57.7,16.1 55.6,18.2 C53.1,20.7 51.6,17.6 53.3,15.9 C56.2,12.9 59.5,11.7 62.8,11.7 C67.6,11.7 72.4,14.3 75.7,18.1 C80.2,23.3 81.2,28 79.9,32.7 L79.9,32.7 Z" id="Shape"></path>
            </g>
        </g>
    </g>
</svg>