<?xml version="1.0" encoding="UTF-8" standalone="no"?>
<svg width="100px" height="100px" viewBox="0 0 100 100" version="1.1" xmlns="http://www.w3.org/2000/svg" xmlns:xlink="http://www.w3.org/1999/xlink">
    <!-- Generator: Sketch 39.1 (31720) - http://www.bohemiancoding.com/sketch -->
    <title>Slice 1</title>
    <desc>Created with Sketch.</desc>
    <defs></defs>
    <g id="Page-1" stroke="none" stroke-width="1" fill="none" fill-rule="evenodd">
        <g id="noun_217681_cc">
            <g id="Group">
                <rect id="Rectangle-path" x="0" y="0" width="100" height="100"></rect>
                <path d="M80.4,84.1 C72.7,92.6 62,98 50,98 C40.3,98 31.3,94.5 24.2,88.5 L24.2,88.5 C28.7,88.8 33.3,89 38,89 C53.4,89 67.8,87.2 80.4,84.1 L80.4,84.1 L80.4,84.1 Z M34.7,34.7 L34.7,35 C34.7,36.7 33.4,38 31.7,38 C30.5,38 29.5,37.3 29,36.4 C30.9,35.8 32.7,35.2 34.7,34.7 L34.7,34.7 L34.7,34.7 Z M70.7,33.6 C70.9,34 71,34.5 71,35 C71,36.7 69.7,38 68,38 C66.3,38 65,36.7 65,35 C65,33.7 65.8,32.6 67,32.2 C68.3,32.6 69.5,33.1 70.7,33.6 L70.7,33.6 L70.7,33.6 Z M92,53 C92,55.3 91.8,57.5 91.5,59.7 L91.5,59.7 C82.3,61.2 72.4,62 62,62 C41.5,62 22.7,58.8 8,53.6 L8,53.6 L8,53 L8,47 C20.5,50.1 34.8,51.8 50,51.8 C64.8,51.8 78.7,50.1 91,47.2 C91.4,47.6 91.7,48 92,48.4 L92,53 L92,53 L92,53 Z M8,42.9 L8,42.9 C24.1,32.7 50.3,26 80,26 C82.7,26 85.4,26.1 88,26.2 L88,26.2 C86.2,22.4 83.8,18.8 81,15.7 C48.4,16.7 20.8,25.7 8.4,38.2 L8.4,38.2 C8.2,39.8 8.1,41.4 8,42.9 L8,42.9 L8,42.9 Z M89.3,29.2 L89.3,29.2 C86.3,29.1 83.2,29 80,29 C75.8,29 71.7,29.1 67.7,29.4 C78,33.3 86.3,38.3 91.9,44 L92,44 C92,38.8 91.1,33.8 89.3,29.2 L89.3,29.2 L89.3,29.2 Z M60.5,30 C53.5,30.7 46.7,31.8 40.5,33.3 C40.6,33.9 40.7,34.5 40.7,35.1 C40.7,40.1 36.7,44.1 31.7,44.1 C27.9,44.1 24.7,41.8 23.4,38.5 C18.6,40.4 14.3,42.4 10.6,44.7 C16.7,46.1 23.1,47.2 29.9,47.9 C39.6,45.1 50.7,43.1 62.5,42.2 C60.4,40.5 59,37.9 59,35 C59,33.1 59.6,31.4 60.5,30 L60.5,30 L60.5,30 Z M74.1,41.6 C75.5,40.3 76.5,38.6 76.8,36.6 C79.8,38.2 82.6,39.9 85,41.8 C82.3,41.7 79.7,41.6 76.9,41.6 L74.1,41.6 L74.1,41.6 L74.1,41.6 Z M88.2,44.9 C84.5,44.7 80.8,44.6 77,44.6 C63.3,44.6 50.3,46 38.8,48.5 C42.5,48.7 46.2,48.8 50,48.8 C63.7,48.8 76.7,47.4 88.2,44.9 L88.2,44.9 L88.2,44.9 Z M9.3,33.6 C10.3,29.8 11.7,26.3 13.6,23 C17.9,23.1 22.2,23.3 26.3,23.6 L26.3,23.6 C19.5,26.5 13.8,29.9 9.3,33.6 L9.3,33.6 L9.3,33.6 L9.3,33.6 Z M15.5,20.1 C16.3,19 17.2,17.8 18.1,16.8 C31.2,13.1 46.8,11 63.5,11 C67.9,11 72.3,11.1 76.5,11.4 C77,11.8 77.6,12.3 78.1,12.8 C61,13.6 45.3,16.6 32.4,21.2 C27,20.6 21.3,20.2 15.5,20.1 L15.5,20.1 L15.5,20.1 L15.5,20.1 Z M22,12.7 C34.3,9.7 48.5,8 63.5,8 C66.3,8 69.2,8.1 71.9,8.2 C65.6,4.3 58,2 50,2 C39.2,2 29.4,6.1 22,12.7 L22,12.7 L22,12.7 Z M91,62.8 L91,62.8 C81.9,64.2 72.2,65 62,65 C41.7,65 23.1,61.9 8.1,56.6 L8.1,56.6 C8.2,58 8.4,59.3 8.6,60.7 L8.6,60.7 C13.3,64.4 19.3,67.7 26.4,70.5 C31.1,70.8 36,71 41,71 C59.6,71 76.7,68.4 90.7,64 L90.7,64 C90.8,63.6 90.9,63.2 91,62.8 L91,62.8 L91,62.8 Z M89.8,67.3 C88.4,71.9 86.2,76.2 83.6,80 L83.4,80 C66.2,80 50.2,77.8 36.8,74 L41,74 C59.1,74 75.8,71.5 89.8,67.3 L89.8,67.3 L89.8,67.3 Z M73,82.7 C46.5,81.3 23.5,74.5 9.5,64.7 L9.5,64.7 C11.5,72.6 15.4,79.6 20.7,85.2 C26.3,85.7 32.1,86 38,86 C50.5,86 62.3,84.8 73,82.7 L73,82.7 Z" id="Shape" fill="#1A1A18"></path>
            </g>
        </g>
    </g>
</svg>